<svg xmlns="http://www.w3.org/2000/svg" viewBox="0 0 512 512">
  <defs>
    <linearGradient id="bg" x1="0" y1="0" x2="1" y2="1">
      <stop offset="0%" stop-color="#0a1628"/>
      <stop offset="100%" stop-color="#0c0c0a"/>
    </linearGradient>
    <linearGradient id="blue" x1="0" y1="0" x2="0" y2="1">
      <stop offset="0%" stop-color="#6cb8f0"/>
      <stop offset="100%" stop-color="#2e86de"/>
    </linearGradient>
    <linearGradient id="mercury" x1="0" y1="0" x2="0" y2="1">
      <stop offset="0%" stop-color="#5dade2"/>
      <stop offset="100%" stop-color="#2e86de"/>
    </linearGradient>
  </defs>
  <rect width="512" height="512" rx="112" fill="url(#bg)"/>
  <g opacity="0.04" stroke="#5dade2" stroke-width="1">
    <line x1="128" y1="0" x2="128" y2="512"/>
    <line x1="256" y1="0" x2="256" y2="512"/>
    <line x1="384" y1="0" x2="384" y2="512"/>
    <line x1="0" y1="128" x2="512" y2="128"/>
    <line x1="0" y1="256" x2="512" y2="256"/>
    <line x1="0" y1="384" x2="512" y2="384"/>
  </g>
  <g transform="translate(256,248)">
    <circle cx="0" cy="72" r="64" fill="rgba(46,134,222,0.06)"/>
    <rect x="-22" y="-128" width="44" height="168" rx="22" fill="none" stroke="url(#blue)" stroke-width="10"/>
    <circle cx="0" cy="72" r="48" fill="none" stroke="url(#blue)" stroke-width="10"/>
    <rect x="-10" y="-40" width="20" height="112" rx="10" fill="url(#mercury)"/>
    <circle cx="0" cy="72" r="32" fill="url(#mercury)"/>
    <line x1="28" y1="-90" x2="44" y2="-90" stroke="#5dade2" stroke-width="5" stroke-linecap="round" opacity="0.6"/>
    <line x1="28" y1="-55" x2="38" y2="-55" stroke="#5dade2" stroke-width="4" stroke-linecap="round" opacity="0.4"/>
    <line x1="28" y1="-20" x2="44" y2="-20" stroke="#5dade2" stroke-width="5" stroke-linecap="round" opacity="0.6"/>
    <line x1="28" y1="15" x2="38" y2="15" stroke="#5dade2" stroke-width="4" stroke-linecap="round" opacity="0.4"/>
    <path d="M72,-50 C82,-62 94,-62 104,-50" fill="none" stroke="#5dade2" stroke-width="5" stroke-linecap="round" opacity="0.7"/>
    <path d="M64,-36 C80,-56 102,-56 118,-36" fill="none" stroke="#5dade2" stroke-width="5" stroke-linecap="round" opacity="0.45"/>
    <path d="M56,-22 C78,-50 110,-50 132,-22" fill="none" stroke="#5dade2" stroke-width="5" stroke-linecap="round" opacity="0.25"/>
  </g>
  <text x="420" y="460" font-family="system-ui,sans-serif" font-weight="700" font-size="48" fill="#5dade2" opacity="0.15">P</text>
</svg>
